<?xml version="1.0" encoding="utf-8"?>
<!-- Generator: Adobe Illustrator 17.0.0, SVG Export Plug-In . SVG Version: 6.00 Build 0)  -->
<!DOCTYPE svg PUBLIC "-//W3C//DTD SVG 1.1//EN" "http://www.w3.org/Graphics/SVG/1.1/DTD/svg11.dtd">
<svg version="1.1" id="图层_1" xmlns="http://www.w3.org/2000/svg" xmlns:xlink="http://www.w3.org/1999/xlink" x="0px" y="0px"
	 width="40.801px" height="35.106px" viewBox="0 0 40.801 35.106" enable-background="new 0 0 40.801 35.106" xml:space="preserve">
<g>
	<g>
		<path fill="#3C3D3D" d="M28.376,11.353c0.207,0,0.41,0.004,0.613,0.014c-1.074-5.85-7.117-10.328-14.41-10.328
			C6.526,1.038,0,6.497,0,13.231c0,3.948,2.243,7.459,5.723,9.686c0.045,0.028,0.134,0.084,0.134,0.084l-1.409,4.413l5.27-2.685
			c0,0,0.165,0.048,0.248,0.071c1.449,0.403,3.001,0.622,4.613,0.622c0.329,0,0.655-0.013,0.979-0.03
			c-0.299-0.927-0.463-1.902-0.463-2.909C15.096,16.337,21.043,11.353,28.376,11.353z M19.652,7.05c1.131,0,2.046,0.887,2.046,1.982
			c0,1.094-0.915,1.982-2.046,1.982c-1.132,0-2.047-0.889-2.047-1.982C17.606,7.936,18.521,7.05,19.652,7.05z M9.506,11.015
			c-1.131,0-2.047-0.889-2.047-1.982c0-1.096,0.916-1.982,2.047-1.982c1.132,0,2.049,0.887,2.049,1.982
			C11.555,10.126,10.638,11.015,9.506,11.015z"/>
	</g>
	<path fill="#3C3D3D" d="M16.168,22.557c0,5.689,5.516,10.302,12.319,10.302c1.361,0,2.672-0.185,3.896-0.527
		c0.07-0.019,0.209-0.061,0.209-0.061l4.451,2.27l-1.189-3.729c0,0,0.076-0.048,0.113-0.071c2.938-1.882,4.834-4.847,4.834-8.184
		c0-5.688-5.514-10.3-12.315-10.3C21.684,12.257,16.168,16.868,16.168,22.557z M31.042,19.009c0-0.924,0.773-1.673,1.729-1.673
		c0.957,0,1.73,0.749,1.73,1.673c0,0.926-0.774,1.676-1.73,1.676C31.815,20.685,31.042,19.935,31.042,19.009z M22.47,19.009
		c0-0.924,0.774-1.673,1.729-1.673c0.956,0,1.731,0.749,1.731,1.673c0,0.926-0.774,1.676-1.731,1.676
		C23.244,20.685,22.47,19.935,22.47,19.009z"/>
</g>
<g display="none">
	<g display="inline">
		<path fill="#3C3D3D" d="M29.848,18.209c-1.432-0.277-0.736-1.047-0.736-1.047s1.401-2.311-0.276-3.988
			c-2.08-2.08-7.134,0.264-7.134,0.264c-1.93,0.601-1.418-0.273-1.145-1.757c0-1.749-0.6-4.709-5.741-2.96
			C9.68,10.479,5.27,16.636,5.27,16.636c-3.066,4.094-2.661,7.256-2.661,7.256c0.767,6.982,8.185,8.899,13.956,9.355
			c6.072,0.475,14.266-2.094,16.75-7.371C35.799,20.588,31.285,18.496,29.848,18.209z M17.014,31.276
			c-6.026,0.282-10.899-2.74-10.899-6.762c0-4.027,4.872-7.257,10.899-7.534c6.032-0.278,10.913,2.207,10.913,6.225
			C27.927,27.227,23.046,31.002,17.014,31.276z"/>
		<path fill="#3C3D3D" d="M15.812,19.632c-6.061,0.71-5.361,6.388-5.361,6.388s-0.062,1.799,1.626,2.714
			c3.547,1.921,7.198,0.758,9.044-1.625C22.967,24.726,21.883,18.928,15.812,19.632z M14.284,27.602
			c-1.132,0.133-2.044-0.52-2.044-1.467c0-0.942,0.811-1.93,1.942-2.048c1.3-0.124,2.146,0.625,2.146,1.571
			C16.329,26.602,15.411,27.473,14.284,27.602z M17.857,24.559c-0.384,0.286-0.855,0.245-1.058-0.098
			c-0.212-0.336-0.133-0.873,0.256-1.155c0.449-0.333,0.916-0.237,1.118,0.098C18.376,23.746,18.231,24.262,17.857,24.559z"/>
	</g>
	<path display="inline" fill="#3C3D3D" d="M38.622,15.027c0.028-0.112,0.047-0.227,0.048-0.349c0.081-0.536,0.132-1.08,0.132-1.624
		c0-5.983-4.866-10.85-10.849-10.85c-0.829,0-1.5,0.672-1.5,1.5c0,0.828,0.671,1.5,1.5,1.5c4.328,0,7.849,3.522,7.849,7.85
		c0,0.482-0.044,0.966-0.131,1.436l0.018,0.003c-0.006,0.057-0.017,0.112-0.017,0.171c0,0.828,0.671,1.5,1.5,1.5
		c0.699,0,1.281-0.48,1.447-1.127h0.002C38.621,15.034,38.621,15.03,38.622,15.027z"/>
	<path display="inline" fill="#3C3D3D" d="M33.925,13.618c0.018-0.186,0.036-0.372,0.036-0.563c0-3.314-2.695-6.009-6.009-6.009
		c-0.69,0-1.25,0.56-1.25,1.25c0,0.69,0.56,1.25,1.25,1.25c1.935,0,3.509,1.574,3.509,3.509c0,0.153-0.01,0.304-0.028,0.451
		l0.029,0.004c-0.006,0.05-0.029,0.094-0.029,0.146c0,0.69,0.56,1.25,1.25,1.25c0.632,0,1.132-0.477,1.217-1.085l0.013,0.002
		c0.004-0.031,0.002-0.064,0.006-0.096c0.001-0.024,0.015-0.046,0.015-0.071C33.933,13.642,33.925,13.631,33.925,13.618z"/>
</g>
<g display="none">
	<path display="inline" fill="#3C3D3D" d="M15.618,0.962l11.356,13.945l0.298-13.2c-2.102-0.915-4.422-1.426-6.861-1.426
		C18.747,0.281,17.139,0.523,15.618,0.962z"/>
	<path display="inline" fill="#3C3D3D" d="M5.297,9.208l17.892,1.829l-9.124-9.544c-2.134,0.84-4.136,2.119-5.859,3.844
		C7.027,6.514,6.062,7.82,5.297,9.208z"/>
	<path display="inline" fill="#3C3D3D" d="M3.829,22.336l13.945-11.358l-13.2-0.296c-0.916,2.102-1.426,4.422-1.426,6.861
		C3.148,19.207,3.388,20.814,3.829,22.336z"/>
	<path display="inline" fill="#3C3D3D" d="M12.074,32.656l1.829-17.892L4.361,23.89c0.839,2.133,2.117,4.135,3.844,5.859
		C9.38,30.926,10.687,31.892,12.074,32.656z"/>
	<path display="inline" fill="#3C3D3D" d="M25.202,34.124L13.845,20.179L13.548,33.38c2.103,0.914,4.422,1.426,6.863,1.426
		C22.073,34.806,23.68,34.565,25.202,34.124z"/>
	<path display="inline" fill="#3C3D3D" d="M35.522,25.878L17.632,24.05l9.125,9.543c2.133-0.84,4.135-2.118,5.859-3.844
		C33.793,28.573,34.758,27.267,35.522,25.878z"/>
	<path display="inline" fill="#3C3D3D" d="M36.99,12.751L23.046,24.109l13.2,0.297c0.915-2.103,1.426-4.422,1.426-6.862
		C37.672,15.88,37.43,14.273,36.99,12.751z"/>
	<path display="inline" fill="#3C3D3D" d="M28.746,2.431l-1.829,17.891l9.543-9.124c-0.84-2.134-2.117-4.135-3.844-5.86
		C31.44,4.161,30.133,3.195,28.746,2.431z"/>
</g>
</svg>
